<?xml version="1.0" encoding="UTF-8"?>
<!DOCTYPE svg PUBLIC "-//W3C//DTD SVG 1.1//EN" "http://www.w3.org/Graphics/SVG/1.1/DTD/svg11.dtd">
<svg xmlns="http://www.w3.org/2000/svg" xml:space="preserve" width="250px" height="100px" version="1.1" shape-rendering="geometricPrecision" text-rendering="geometricPrecision" image-rendering="optimizeQuality" fill-rule="evenodd" clip-rule="evenodd" viewBox="0 0 250 100" xmlns:xlink="http://www.w3.org/1999/xlink">
  <g>
   <path fill="#3B82F6" d="M14 0l13 49 9 -33 7 0 0 0 8 0 8 33 13 -49 15 0 -20 76 -8 0 0 0 -7 0 -9 -33 -8 33 -8 0 0 0 -7 0 -20 -76 14 0zm178 14l0 16 34 0 0 14 -34 0 0 32 -14 0 0 -32 0 -14 0 -16 0 -14 14 0 34 0 0 14 -34 0zm44 -14l14 0 0 76 -14 0 0 -76z" />
   <path fill="#22C55E" d="M156 61l32 31 -8 8 -31 -32c-15,12 -36,10 -49,-3 -15,-15 -15,-39 0,-54 14,-15 38,-15 53,0 13,14 14,35 3,50zm-48 -41c10,-10 26,-10 36,0 10,10 10,26 0,36 -10,10 -26,10 -36,0 -10,-10 -10,-26 0,-36z" />
  </g>
</svg>
